<svg width="29" height="29" viewBox="0 0 29 29" fill="none" xmlns="http://www.w3.org/2000/svg">
<path d="M15.5115 1.36866C15.5115 0.612772 14.8987 0 14.1429 0C13.387 0 12.7742 0.612772 12.7742 1.36866V12.7742H1.36866C0.612772 12.7742 0 13.387 0 14.1429C0 14.8987 0.612772 15.5115 1.36866 15.5115H12.7742V26.9171C12.7742 27.6729 13.387 28.2857 14.1429 28.2857C14.8987 28.2857 15.5115 27.6729 15.5115 26.9171V15.5115H26.9171C27.6729 15.5115 28.2857 14.8987 28.2857 14.1429C28.2857 13.387 27.6729 12.7742 26.9171 12.7742H15.5115V1.36866Z" fill="white"/>
</svg>
