<svg width="40" height="40" viewBox="0 0 40 40" fill="none" xmlns="http://www.w3.org/2000/svg">
<path fill-rule="evenodd" clip-rule="evenodd" d="M8.09017 13.3337C6.38352 13.3337 5 14.7172 5 16.4238V27.3337C5 30.1621 5 31.5763 5.87868 32.455C6.75736 33.3337 8.17157 33.3337 11 33.3337H29C31.8284 33.3337 33.2426 33.3337 34.1213 32.455C35 31.5763 35 30.1621 35 27.3337V16.4238C35 14.7172 33.6165 13.3337 31.9098 13.3337C30.7394 13.3337 29.6693 12.6724 29.1459 11.6255L27.7722 8.87814C27.2343 7.80231 26.9654 7.26439 26.4821 6.96569C25.9988 6.66699 25.3973 6.66699 24.1945 6.66699H15.8055C14.6027 6.66699 14.0012 6.66699 13.5179 6.96569C13.0346 7.26439 12.7657 7.80231 12.2278 8.87814L10.8541 11.6255C10.3307 12.6724 9.26064 13.3337 8.09017 13.3337ZM25.6667 21.667C25.6667 24.7966 23.1296 27.3337 20 27.3337C16.8704 27.3337 14.3333 24.7966 14.3333 21.667C14.3333 18.5374 16.8704 16.0003 20 16.0003C23.1296 16.0003 25.6667 18.5374 25.6667 21.667ZM26.6667 21.667C26.6667 25.3489 23.6819 28.3337 20 28.3337C16.3181 28.3337 13.3333 25.3489 13.3333 21.667C13.3333 17.9851 16.3181 15.0003 20 15.0003C23.6819 15.0003 26.6667 17.9851 26.6667 21.667Z" fill="#222222"/>
</svg>
