<svg width="106" height="110" viewBox="0 0 106 110" fill="none" xmlns="http://www.w3.org/2000/svg">
<path d="M53.6518 49.3063C53.5744 49.2036 53.4754 49.1205 53.3624 49.0634C53.2494 49.0063 53.1254 48.9766 52.9997 48.9766C52.874 48.9766 52.75 49.0063 52.637 49.0634C52.524 49.1205 52.425 49.2036 52.3476 49.3063L40.7538 64.528C40.6582 64.6546 40.5989 64.8066 40.5827 64.9666C40.5664 65.1266 40.5939 65.2881 40.6619 65.4327C40.7299 65.5772 40.8358 65.699 40.9674 65.7841C41.0989 65.8691 41.2509 65.9141 41.406 65.9137H49.0558V91.9528C49.0558 92.4254 49.4284 92.8122 49.8839 92.8122H56.0948C56.5503 92.8122 56.9229 92.4254 56.9229 91.9528V65.9245H64.5934C65.287 65.9245 65.67 65.0973 65.2456 64.5387L53.6518 49.3063Z" fill="#81A0FF"/>
<path d="M83.9926 39.3916C79.2516 26.415 67.1713 17.1875 53.0207 17.1875C38.8701 17.1875 26.7898 26.4043 22.0488 39.3809C13.1775 41.7979 6.625 50.1875 6.625 60.1562C6.625 72.0264 15.8896 81.6406 27.3178 81.6406H31.4688C31.9242 81.6406 32.2969 81.2539 32.2969 80.7812V74.3359C32.2969 73.8633 31.9242 73.4766 31.4688 73.4766H27.3178C23.8293 73.4766 20.5479 72.0371 18.1049 69.4268C15.6723 66.8271 14.3783 63.3252 14.4922 59.6943C14.5854 56.8584 15.517 54.1943 17.2043 51.9492C18.933 49.6611 21.3553 47.9961 24.0467 47.2549L27.9699 46.1914L29.4088 42.2598C30.299 39.8105 31.5412 37.5225 33.1043 35.4492C34.6474 33.3943 36.4753 31.5879 38.5285 30.0889C42.783 26.9844 47.7932 25.3408 53.0207 25.3408C58.2482 25.3408 63.2584 26.9844 67.5129 30.0889C69.5729 31.5928 71.3947 33.3975 72.9371 35.4492C74.5002 37.5225 75.7424 39.8213 76.6326 42.2598L78.0611 46.1807L81.974 47.2549C87.5846 48.8232 91.5078 54.1191 91.5078 60.1562C91.5078 63.7119 90.1725 67.0635 87.7502 69.5771C86.5623 70.8171 85.1492 71.8002 83.5926 72.4695C82.0361 73.1389 80.3671 73.4812 78.6822 73.4766H74.5312C74.0758 73.4766 73.7031 73.8633 73.7031 74.3359V80.7812C73.7031 81.2539 74.0758 81.6406 74.5312 81.6406H78.6822C90.1104 81.6406 99.375 72.0264 99.375 60.1562C99.375 50.1982 92.8432 41.8193 83.9926 39.3916Z" fill="#81A0FF"/>
</svg>
