<svg width="55" height="30" viewBox="0 0 55 30" fill="none" xmlns="http://www.w3.org/2000/svg">
<g filter="url(#filter0_i_156_15451)">
<rect width="55" height="30" rx="15" fill="url(#paint0_linear_156_15451)"/>
</g>
<path d="M31.2515 8.62826C31.3854 8.39566 31.6825 8.45915 31.7428 8.73322L31.9556 9.70202C31.9801 9.81345 32.0504 9.90162 32.1414 9.93516L32.9328 10.2267C33.1567 10.3092 33.1987 10.6714 33.0022 10.8255L32.3079 11.3703C32.228 11.4329 32.1805 11.5411 32.1824 11.6564L32.1981 12.6588C32.2026 12.9424 31.9314 13.1027 31.7498 12.9239L31.1078 12.2918C31.0339 12.2191 30.9343 12.1978 30.8445 12.2356L30.0628 12.5635C29.8417 12.6563 29.6321 12.3932 29.7163 12.1286L30.0139 11.1931C30.0481 11.0856 30.034 10.9642 29.9766 10.8722L29.4778 10.0725C29.3367 9.84624 29.4783 9.52332 29.7119 9.53859L30.5379 9.59256C30.6329 9.59877 30.7238 9.54502 30.7782 9.45046L31.2515 8.62826Z" fill="url(#paint1_linear_156_15451)"/>
<path d="M25.011 4.1298C25.0436 4.07311 25.1161 4.08858 25.1307 4.15538L25.1826 4.3915C25.1886 4.41866 25.2057 4.44015 25.2279 4.44833L25.4208 4.51939C25.4753 4.53949 25.4856 4.62776 25.4377 4.66532L25.2685 4.7981C25.249 4.81337 25.2374 4.83975 25.2379 4.86785L25.2417 5.11216C25.2428 5.18128 25.1767 5.22035 25.1324 5.17677L24.976 5.02271C24.958 5.00499 24.9337 4.9998 24.9118 5.009L24.7213 5.08892C24.6674 5.11154 24.6163 5.04742 24.6368 4.98292L24.7094 4.75493C24.7177 4.72871 24.7143 4.69912 24.7003 4.6767L24.5787 4.48179C24.5443 4.42665 24.5788 4.34795 24.6358 4.35167L24.8371 4.36482C24.8602 4.36634 24.8824 4.35324 24.8956 4.33019L25.011 4.1298Z" fill="url(#paint2_linear_156_15451)"/>
<path d="M39.1743 11.0497C39.2081 10.8827 39.3875 10.8399 39.471 10.9788L39.766 11.4701C39.7999 11.5266 39.8555 11.5579 39.913 11.5527L40.413 11.5079C40.5544 11.4952 40.6435 11.6888 40.5602 11.828L40.2659 12.3199C40.232 12.3765 40.2247 12.4502 40.2465 12.5149L40.4362 13.0774C40.4898 13.2366 40.3655 13.399 40.2305 13.3461L39.7536 13.1588C39.6988 13.1373 39.6386 13.1516 39.5946 13.1968L39.2119 13.5892C39.1036 13.7002 38.9377 13.6071 38.9376 13.4351L38.9371 12.8275C38.9371 12.7576 38.9072 12.6927 38.8582 12.6559L38.432 12.336C38.3114 12.2455 38.3333 12.0254 38.4681 11.9721L38.9447 11.7838C38.9996 11.7622 39.0413 11.7077 39.055 11.6398L39.1743 11.0497Z" fill="url(#paint3_linear_156_15451)"/>
<path d="M44.8281 7.13405C44.847 7.04053 44.9475 7.01655 44.9942 7.09439L45.1595 7.36955C45.1785 7.40119 45.2096 7.41869 45.2418 7.4158L45.5218 7.3907C45.601 7.3836 45.6509 7.49203 45.6043 7.56997L45.4394 7.84548C45.4205 7.87717 45.4164 7.91848 45.4286 7.95472L45.5348 8.26975C45.5649 8.35888 45.4952 8.44988 45.4196 8.42021L45.1525 8.31532C45.1218 8.30326 45.0881 8.3113 45.0635 8.33658L44.8491 8.55639C44.7885 8.61857 44.6955 8.56638 44.6955 8.4701L44.6952 8.12977C44.6952 8.09062 44.6785 8.05428 44.651 8.03367L44.4123 7.85448C44.3448 7.80379 44.357 7.68053 44.4325 7.6507L44.6995 7.54525C44.7302 7.53312 44.7536 7.50261 44.7612 7.4646L44.8281 7.13405Z" fill="url(#paint4_linear_156_15451)"/>
<path d="M36.4148 3.28769C36.5062 3.24026 36.6015 3.34398 36.5725 3.45918L36.4699 3.86639C36.4581 3.91323 36.4671 3.96413 36.4937 4.00099L36.725 4.32141C36.7905 4.41206 36.7386 4.55406 36.6392 4.55618L36.288 4.5637C36.2476 4.56456 36.2104 4.59067 36.1897 4.63273L36.0098 4.99844C35.9589 5.10189 35.8314 5.08593 35.7991 4.97204L35.6846 4.56948C35.6715 4.52317 35.6395 4.48841 35.6001 4.47755L35.2576 4.38314C35.1607 4.35644 35.1338 4.20457 35.2132 4.13206L35.4937 3.87574C35.5259 3.84626 35.5433 3.79866 35.5397 3.74989L35.5079 3.32585C35.4989 3.20588 35.6098 3.12799 35.6912 3.19706L35.979 3.44121C36.0121 3.4693 36.0548 3.47465 36.0919 3.45536L36.4148 3.28769Z" fill="url(#paint5_linear_156_15451)"/>
<defs>
<filter id="filter0_i_156_15451" x="0" y="0" width="55" height="36" filterUnits="userSpaceOnUse" color-interpolation-filters="sRGB">
<feFlood flood-opacity="0" result="BackgroundImageFix"/>
<feBlend mode="normal" in="SourceGraphic" in2="BackgroundImageFix" result="shape"/>
<feColorMatrix in="SourceAlpha" type="matrix" values="0 0 0 0 0 0 0 0 0 0 0 0 0 0 0 0 0 0 127 0" result="hardAlpha"/>
<feMorphology radius="3" operator="erode" in="SourceAlpha" result="effect1_innerShadow_156_15451"/>
<feOffset dy="6"/>
<feGaussianBlur stdDeviation="4"/>
<feComposite in2="hardAlpha" operator="arithmetic" k2="-1" k3="1"/>
<feColorMatrix type="matrix" values="0 0 0 0 0 0 0 0 0 0 0 0 0 0 0 0 0 0 0.25 0"/>
<feBlend mode="normal" in2="shape" result="effect1_innerShadow_156_15451"/>
</filter>
<linearGradient id="paint0_linear_156_15451" x1="28.1875" y1="1.16667" x2="27.1778" y2="29.9887" gradientUnits="userSpaceOnUse">
<stop stop-color="#2B4485"/>
<stop offset="1" stop-color="#AFCAFF"/>
</linearGradient>
<linearGradient id="paint1_linear_156_15451" x1="31.5904" y1="8.03964" x2="30.4147" y2="13.5425" gradientUnits="userSpaceOnUse">
<stop stop-color="#ADDDFF"/>
<stop offset="1" stop-color="#EDF6FF" stop-opacity="0"/>
</linearGradient>
<linearGradient id="paint2_linear_156_15451" x1="25.0936" y1="3.98634" x2="24.807" y2="5.32753" gradientUnits="userSpaceOnUse">
<stop stop-color="#ADDDFF"/>
<stop offset="1" stop-color="#EDF6FF" stop-opacity="0"/>
</linearGradient>
<linearGradient id="paint3_linear_156_15451" x1="39.2597" y1="10.6271" x2="40.0502" y2="13.9389" gradientUnits="userSpaceOnUse">
<stop stop-color="#ADDDFF"/>
<stop offset="1" stop-color="#EDF6FF" stop-opacity="0"/>
</linearGradient>
<linearGradient id="paint4_linear_156_15451" x1="44.8759" y1="6.8974" x2="45.3187" y2="8.75226" gradientUnits="userSpaceOnUse">
<stop stop-color="#ADDDFF"/>
<stop offset="1" stop-color="#EDF6FF" stop-opacity="0"/>
</linearGradient>
<linearGradient id="paint5_linear_156_15451" x1="36.646" y1="3.16765" x2="35.035" y2="4.64896" gradientUnits="userSpaceOnUse">
<stop stop-color="#ADDDFF"/>
<stop offset="1" stop-color="#EDF6FF" stop-opacity="0"/>
</linearGradient>
</defs>
</svg>
