<svg width="62" height="62" viewBox="0 0 62 62" fill="none" xmlns="http://www.w3.org/2000/svg">
<rect x="10.334" y="7.75" width="41.3333" height="46.5" rx="2" fill="#685CDD"/>
<path d="M10.334 47.916C10.334 46.0304 10.334 45.0876 10.9198 44.5018C11.5056 43.916 12.4484 43.916 14.334 43.916H47.6673C49.5529 43.916 50.4957 43.916 51.0815 43.3302C51.6673 42.7444 51.6673 41.8016 51.6673 39.916V36.166V50.2493C51.6673 52.135 51.6673 53.0778 51.0815 53.6636C50.4957 54.2494 49.5529 54.2494 47.6673 54.2494H14.334C12.4484 54.2494 11.5056 54.2494 10.9198 53.6636C10.334 53.0778 10.334 52.135 10.334 50.2494V47.916Z" fill="#3B30A7"/>
<path d="M39.7373 21.5574C40.0926 21.196 40.0868 20.616 39.7241 20.2618C39.3615 19.9077 38.7794 19.9135 38.424 20.2749L28.1621 30.7096C27.5613 31.3205 26.5742 31.3205 25.9734 30.7096L22.576 27.255C22.2206 26.8936 21.6385 26.8877 21.2759 27.2419C20.9132 27.596 20.9074 28.176 21.2627 28.5374L24.6602 31.992C25.9819 33.336 28.1536 33.336 29.4753 31.992L39.7373 21.5574Z" fill="white"/>
</svg>
