<svg width="96" height="56" viewBox="0 0 96 56" fill="none" xmlns="http://www.w3.org/2000/svg">
<g clip-path="url(#clip0_28_2125)">
<path fill-rule="evenodd" clip-rule="evenodd" d="M65.8443 37.4652C70.0752 38.3686 74.2373 35.6712 75.1407 31.4403C76.0442 27.2095 73.3467 23.0473 69.1159 22.1439C64.885 21.2405 60.7229 23.9379 59.8195 28.1687C58.916 32.3996 61.6135 36.5617 65.8443 37.4652ZM66.4577 34.5924C69.102 35.1571 71.7034 33.4712 72.268 30.8269C72.8326 28.1826 71.1467 25.5813 68.5025 25.0166C65.8582 24.452 63.2568 26.1379 62.6922 28.7822C62.1276 31.4264 63.8135 34.0278 66.4577 34.5924Z" fill="#363538"/>
<path d="M76.7765 23.7797C77.8342 24.0055 78.8748 23.3312 79.1006 22.2735C79.3265 21.2157 78.6521 20.1752 77.5944 19.9493C76.5367 19.7235 75.4962 20.3979 75.2703 21.4556C75.0444 22.5133 75.7188 23.5538 76.7765 23.7797Z" fill="#363538"/>
<path fill-rule="evenodd" clip-rule="evenodd" d="M82.1445 17.7596C82.6694 19.1054 83.6511 20.2237 84.9176 20.9186C87.3003 22.2259 88.5433 24.9414 87.9758 27.5992L84.9959 41.5546C84.0925 45.7855 79.9303 48.4829 75.6995 47.5795L52.7176 42.6721C48.4867 41.7687 45.7893 37.6065 46.6927 33.3757L49.6726 19.4203C50.2402 16.7625 52.4839 14.7915 55.1928 14.5714C56.6326 14.4544 57.9854 13.8346 59.0143 12.8206L60.0514 11.7985C61.928 9.94881 64.6089 9.16662 67.1858 9.71687L75.9533 11.589C78.5302 12.1392 80.6578 13.9482 81.6153 16.403L82.1445 17.7596ZM76.3129 44.7067C78.9572 45.2714 81.5585 43.5855 82.1232 40.9412L85.1031 26.9858C85.3997 25.5966 84.75 24.1772 83.5046 23.4939C81.6336 22.4673 80.1833 20.8153 79.4078 18.827L78.8786 17.4705C78.2802 15.9362 76.9504 14.8056 75.3399 14.4617L66.5724 12.5896C64.9618 12.2457 63.2863 12.7346 62.1134 13.8906L61.0763 14.9127C59.5563 16.4108 57.5578 17.3264 55.4307 17.4993C54.0148 17.6143 52.842 18.6445 52.5454 20.0337L49.5655 33.9891C49.0008 36.6334 50.6867 39.2347 53.331 39.7994L76.3129 44.7067Z" fill="#363538"/>
</g>
<path d="M27.3755 23.1485C26.7114 22.6827 25.7954 22.8435 25.3296 23.5076L22.1491 28.0424C21.6833 28.7065 21.844 29.6225 22.5081 30.0882C23.1722 30.554 24.0882 30.3933 24.554 29.7292L25.6985 28.0974L27.1168 36.178C27.257 36.9769 28.0184 37.5109 28.8173 37.3707C29.6163 37.2305 30.1503 36.4691 30.0101 35.6701L28.5918 27.5896L30.2235 28.734C30.8876 29.1998 31.8036 29.0391 32.2694 28.375C32.7352 27.7108 32.5744 26.7949 31.9103 26.3291L27.3755 23.1485Z" fill="#363538"/>
<path fill-rule="evenodd" clip-rule="evenodd" d="M15.0999 12.9367C9.81504 13.8643 6.40869 19.0586 7.66414 24.2753L11.337 39.5368C12.4863 44.3125 17.1508 47.3715 21.989 46.5223L38.4576 43.6317C43.2451 42.7914 46.5785 38.4068 46.1079 33.569L45.1255 23.4712C44.6178 18.2525 39.7748 14.5706 34.6104 15.4771L30.0846 16.2714C29.2857 16.4117 28.5243 15.8777 28.3841 15.0787C27.9634 12.6818 25.6793 11.0798 23.2824 11.5005L15.0999 12.9367ZM10.5201 23.5879C9.6611 20.0186 11.9918 16.4647 15.6077 15.83L23.7903 14.3938C24.5892 14.2536 25.3506 14.7876 25.4908 15.5865C25.9115 17.9834 28.1956 19.5854 30.5925 19.1647L35.1183 18.3703C38.5973 17.7597 41.8598 20.24 42.2018 23.7556L43.1842 33.8534C43.5062 37.1635 41.2254 40.1635 37.9498 40.7384L21.4811 43.629C18.1708 44.21 14.9793 42.1171 14.1929 38.8495L10.5201 23.5879Z" fill="#363538"/>
<defs>
<clipPath id="clip0_28_2125">
<rect width="47" height="47" fill="white" transform="translate(49.8145) rotate(12.0534)"/>
</clipPath>
</defs>
</svg>
