<svg width="51" height="65" viewBox="0 0 51 65" fill="none" xmlns="http://www.w3.org/2000/svg">
<ellipse cx="30.1895" cy="42.877" rx="11.7188" ry="16.4063" fill="#FFCE51"/>
<path d="M48.875 34.5947C43.9687 21.8447 26.5 21.1572 30.7187 2.62593C31.0312 1.25093 29.5625 0.188427 28.375 0.907177C17.0312 7.59468 8.875 21.0009 15.7187 38.5634C16.2812 40.0009 14.5937 41.3447 13.375 40.4072C7.71875 36.1259 7.125 29.9697 7.625 25.5634C7.8125 23.9384 5.6875 23.1572 4.78125 24.5009C2.65625 27.7509 0.5 33.0009 0.5 40.9072C1.6875 58.4072 16.4687 63.7822 21.7812 64.4697C29.375 65.4384 37.5937 64.0322 43.5 58.6259C50 52.5947 52.375 42.9697 48.875 34.5947ZM19.875 50.3134C24.375 49.2197 26.6875 45.9697 27.3125 43.0947C28.3437 38.6259 24.3125 34.2509 27.0312 27.1884C28.0625 33.0322 37.25 36.6884 37.25 43.0634C37.5 50.9697 28.9375 57.7509 19.875 50.3134Z" fill="#FF7324"/>
</svg>
