<svg width="45" height="45" viewBox="0 0 45 45" fill="none" xmlns="http://www.w3.org/2000/svg">
<path d="M30.8806 12.2444C30.3315 11.6952 30.3315 10.8048 30.8806 10.2556C31.4298 9.70646 32.3202 9.70646 32.8694 10.2556L38.4944 15.8806C38.535 15.9212 38.5728 15.9641 38.6078 16.0088C38.7704 16.2165 38.8759 16.471 38.9006 16.7487C38.9043 16.7905 38.9062 16.8327 38.9062 16.875C38.9062 17.1805 38.8069 17.4757 38.626 17.7174C38.586 17.7709 38.5421 17.8217 38.4944 17.8694L32.8694 23.4944C32.3202 24.0435 31.4298 24.0435 30.8806 23.4944C30.3315 22.9452 30.3315 22.0548 30.8806 21.5056L34.105 18.2812H24.375C15.8319 18.2812 8.90626 25.2068 8.90626 33.75C8.90626 34.5266 8.27665 35.1562 7.50001 35.1562C6.72335 35.1562 6.09376 34.5266 6.09376 33.75C6.09376 23.6535 14.2786 15.4688 24.375 15.4688H34.105L30.8806 12.2444Z" fill="black"/>
</svg>
