<svg width="45" height="45" viewBox="0 0 45 45" fill="none" xmlns="http://www.w3.org/2000/svg">
<path d="M14.1194 12.2444C14.6685 11.6952 14.6685 10.8048 14.1194 10.2556C13.5702 9.70646 12.6798 9.70646 12.1306 10.2556L6.50563 15.8806C6.46504 15.9212 6.42718 15.9641 6.39218 16.0088C6.22961 16.2165 6.12415 16.471 6.09943 16.7487C6.09566 16.7905 6.09375 16.8327 6.09375 16.875C6.09375 17.1805 6.19313 17.4757 6.374 17.7174C6.41396 17.7709 6.4579 17.8217 6.50563 17.8694L12.1306 23.4944C12.6798 24.0435 13.5702 24.0435 14.1194 23.4944C14.6685 22.9452 14.6685 22.0548 14.1194 21.5056L10.895 18.2812H20.625C29.1681 18.2812 36.0937 25.2068 36.0937 33.75C36.0937 34.5266 36.7233 35.1562 37.5 35.1562C38.2766 35.1562 38.9062 34.5266 38.9062 33.75C38.9062 23.6535 30.7214 15.4688 20.625 15.4688H10.895L14.1194 12.2444Z" fill="black"/>
</svg>
