<svg width="39" height="35" viewBox="0 0 39 35" fill="none" xmlns="http://www.w3.org/2000/svg">
<path d="M0 6.5H34.6667C35.9082 6.5 36.529 6.5 37.0261 6.68092C37.8594 6.98422 38.5158 7.64064 38.8191 8.47394C39 8.97102 39 9.59179 39 10.8333H0V6.5Z" fill="#222222"/>
<path d="M0 15.1665H39V29.8665C39 31.5467 39 32.3867 38.673 33.0285C38.3854 33.593 37.9265 34.0519 37.362 34.3395C36.7202 34.6665 35.8802 34.6665 34.2 34.6665H4.8C3.11984 34.6665 2.27976 34.6665 1.63803 34.3395C1.07354 34.0519 0.614601 33.593 0.32698 33.0285C0 32.3867 0 31.5467 0 29.8665V15.1665Z" fill="#222222"/>
<path d="M0 4C0 2.11438 0 1.17157 0.585786 0.585786C1.17157 0 2.11438 0 4 0H13.5098C14.3273 0 14.7361 0 15.1036 0.152241C15.4711 0.304482 15.7602 0.593512 16.3382 1.17157L21.6667 6.5H0V4Z" fill="#222222"/>
</svg>
