<svg width="32" height="31" viewBox="0 0 32 31" fill="none" xmlns="http://www.w3.org/2000/svg">
<path d="M21.7235 6.49751C21.3366 6.11919 21.3366 5.50581 21.7235 5.12749C22.1103 4.74917 22.7375 4.74917 23.1243 5.12749L27.0839 8.99982C27.2647 9.17533 27.3767 9.41863 27.3767 9.68751C27.3767 9.93697 27.2803 10.1644 27.1219 10.3361C27.1105 10.3485 27.0987 10.3607 27.0866 10.3725L23.1243 14.2475C22.7375 14.6258 22.1103 14.6258 21.7235 14.2475C21.3366 13.8692 21.3366 13.2558 21.7235 12.8775L23.9947 10.6562H13.1786C9.34905 10.6562 6.24461 13.6923 6.24461 17.4375C6.24461 21.1827 9.34905 24.2187 13.1786 24.2187H27.0465C27.5936 24.2187 28.0371 24.6525 28.0371 25.1875C28.0371 25.7225 27.5936 26.1562 27.0465 26.1562H13.1786C8.2549 26.1562 4.26347 22.2527 4.26347 17.4375C4.26347 12.6223 8.2549 8.71875 13.1786 8.71875H23.9947L21.7235 6.49751Z" fill="black"/>
</svg>
