<svg width="37" height="41" viewBox="0 0 37 41" fill="none" xmlns="http://www.w3.org/2000/svg">
<path fill-rule="evenodd" clip-rule="evenodd" d="M10.1496 1.14723C10.7139 -0.382412 12.8706 -0.382411 13.4348 1.14724L14.2159 3.26467C14.3933 3.74558 14.7712 4.12475 15.2506 4.30271L17.3614 5.08623C18.8862 5.65225 18.8862 7.81575 17.3614 8.38177L15.2506 9.16529C14.7712 9.34325 14.3933 9.72242 14.2159 10.2033L13.4348 12.3208C12.8706 13.8504 10.7139 13.8504 10.1496 12.3208L9.36858 10.2033C9.19118 9.72242 8.81321 9.34325 8.3338 9.16529L6.22303 8.38177C4.6982 7.81575 4.6982 5.65225 6.22303 5.08623L8.33381 4.30271C8.81321 4.12475 9.19118 3.74558 9.36858 3.26467L10.1496 1.14723ZM10.8173 6.734C11.1848 6.45371 11.5128 6.12464 11.7922 5.75598C12.0716 6.12464 12.3997 6.45371 12.7672 6.734C12.3997 7.0143 12.0716 7.34336 11.7922 7.71203C11.5128 7.34336 11.1848 7.0143 10.8173 6.734Z" fill="#363538"/>
<path fill-rule="evenodd" clip-rule="evenodd" d="M0.65538 29.1192L23.4949 6.20766C26.5843 3.10842 31.5934 3.10842 34.6829 6.20766C37.7724 9.3069 37.7724 14.3318 34.6829 17.431L11.8434 40.3426C11.4238 40.7635 10.8546 41 10.2612 41H2.23761C1.00181 41 0 39.995 0 38.7553V30.7064C0 30.1111 0.235747 29.5402 0.65538 29.1192ZM3.35641 37.633V31.1713L25.8682 8.58849C27.6469 6.80414 30.5308 6.80414 32.3095 8.58849C34.0883 10.3728 34.0883 13.2658 32.3095 15.0502L9.79776 37.633H3.35641Z" fill="#363538"/>
<path d="M26.1709 33.4192C24.9002 33.8909 24.9002 35.6938 26.1709 36.1655L27.9299 36.8184C28.3294 36.9667 28.6443 37.2827 28.7922 37.6835L29.443 39.448C29.9132 40.7227 31.7105 40.7227 32.1807 39.448L32.8316 37.6835C32.9794 37.2827 33.2944 36.9667 33.6939 36.8184L35.4529 36.1655C36.7236 35.6938 36.7236 33.8909 35.4529 33.4192L33.6939 32.7663C33.2944 32.618 32.9794 32.302 32.8316 31.9012L32.1807 30.1367C31.7105 28.862 29.9132 28.862 29.443 30.1367L28.7922 31.9012C28.6443 32.302 28.3294 32.618 27.9299 32.7663L26.1709 33.4192Z" fill="#363538"/>
</svg>
