<svg width="31" height="31" viewBox="0 0 31 31" fill="none" xmlns="http://www.w3.org/2000/svg">
<path fill-rule="evenodd" clip-rule="evenodd" d="M15.5 31C24.0604 31 31 24.0604 31 15.5C31 6.93959 24.0604 0 15.5 0C6.93959 0 0 6.93959 0 15.5C0 24.0604 6.93959 31 15.5 31ZM13.9019 18.4478C13.9019 18.5539 13.9879 18.6399 14.094 18.6399H16.1124C16.2185 18.6399 16.3045 18.5539 16.3045 18.4478C16.3093 17.9257 16.3694 17.4874 16.4848 17.1327C16.6051 16.7732 16.7879 16.4604 17.0332 16.1945C17.2833 15.9285 17.6031 15.6724 17.9927 15.4261C18.4353 15.1552 18.8176 14.8474 19.1399 14.5026C19.4622 14.1578 19.7099 13.7638 19.883 13.3205C20.061 12.8773 20.15 12.3749 20.15 11.8134C20.15 10.981 19.9528 10.2619 19.5584 9.6561C19.1688 9.04536 18.6228 8.57499 17.9206 8.245C17.2232 7.915 16.4151 7.75 15.4964 7.75C14.6547 7.75 13.8851 7.90761 13.1876 8.22283C12.495 8.53805 11.937 9.01088 11.5138 9.64132C11.3094 9.94918 11.1521 10.2934 11.0418 10.6741C10.8383 11.3764 11.4529 11.9907 12.1841 11.9907H12.2122C12.8883 11.9907 13.3794 11.4108 13.7504 10.8456C13.9524 10.5402 14.2049 10.3136 14.508 10.1659C14.8158 10.0132 15.1405 9.93684 15.482 9.93684C15.8523 9.93684 16.1866 10.0156 16.4848 10.1733C16.7879 10.3309 17.0284 10.5525 17.2063 10.8382C17.3843 11.1238 17.4733 11.4612 17.4733 11.8503C17.4733 12.1951 17.4059 12.5079 17.2713 12.7886C17.1366 13.0644 16.9514 13.3156 16.7157 13.5422C16.4848 13.7638 16.2227 13.9682 15.9293 14.1554C15.5012 14.4263 15.1381 14.7243 14.8398 15.0493C14.5416 15.3695 14.3107 15.7931 14.1472 16.3201C13.9885 16.8471 13.9067 17.5563 13.9019 18.4478ZM14.039 22.7772C14.3516 23.0924 14.7244 23.25 15.1573 23.25C15.4459 23.25 15.708 23.1786 15.9437 23.0357C16.1842 22.888 16.3766 22.691 16.5209 22.4447C16.67 22.1984 16.7446 21.9251 16.7446 21.6246C16.7446 21.1814 16.5858 20.8021 16.2684 20.4869C15.9557 20.1717 15.5854 20.0141 15.1573 20.0141C14.7244 20.0141 14.3516 20.1717 14.039 20.4869C13.7263 20.8021 13.57 21.1814 13.57 21.6246C13.57 22.0778 13.7263 22.4619 14.039 22.7772Z" fill="#363538"/>
</svg>
