<svg width="20" height="20" viewBox="0 0 20 20" fill="none" xmlns="http://www.w3.org/2000/svg">
<path d="M8.96897 11.9018C8.96897 11.9703 9.02445 12.0257 9.0929 12.0257H10.3951C10.4635 12.0257 10.519 11.9703 10.519 11.9018C10.5221 11.565 10.5609 11.2822 10.6354 11.0534C10.713 10.8214 10.8309 10.6196 10.9891 10.448C11.1505 10.2765 11.3569 10.1112 11.6082 9.95234C11.8937 9.77757 12.1404 9.57896 12.3483 9.35653C12.5562 9.1341 12.7161 8.87989 12.8278 8.5939C12.9426 8.30791 13 7.98379 13 7.62154C13 7.08453 12.8728 6.62059 12.6183 6.22974C12.367 5.83572 12.0147 5.53225 11.5617 5.31935C11.1117 5.10645 10.5904 5 9.99767 5C9.45462 5 8.95811 5.10168 8.50815 5.30505C8.06129 5.50842 7.70132 5.81347 7.42824 6.22021C7.29641 6.41883 7.19491 6.64093 7.12375 6.88652C6.99248 7.33961 7.38896 7.73594 7.86069 7.73594H7.87882C8.31503 7.73594 8.63186 7.36181 8.87122 6.99714C9.00155 6.80013 9.16447 6.65396 9.35997 6.55863C9.55857 6.46012 9.76804 6.41087 9.98836 6.41087C10.2273 6.41087 10.443 6.46171 10.6354 6.56339C10.8309 6.66508 10.986 6.80807 11.1009 6.99237C11.2157 7.17668 11.2731 7.39434 11.2731 7.64538C11.2731 7.86781 11.2296 8.06959 11.1427 8.25072C11.0559 8.42866 10.9364 8.59072 10.7843 8.73689C10.6354 8.87989 10.4663 9.01176 10.277 9.13251C10.0008 9.30728 9.76649 9.49952 9.57409 9.70925C9.38169 9.91579 9.23274 10.1891 9.12723 10.5291C9.02483 10.8691 8.97207 11.3267 8.96897 11.9018Z" fill="#363538"/>
<path d="M9.05741 14.6949C9.25912 14.8983 9.49961 15 9.7789 15C9.96509 15 10.1342 14.9539 10.2863 14.8618C10.4414 14.7664 10.5656 14.6393 10.6587 14.4805C10.7548 14.3216 10.8029 14.1452 10.8029 13.9514C10.8029 13.6654 10.7005 13.4207 10.4957 13.2174C10.294 13.014 10.0551 12.9123 9.7789 12.9123C9.49961 12.9123 9.25912 13.014 9.05741 13.2174C8.8557 13.4207 8.75485 13.6654 8.75485 13.9514C8.75485 14.2437 8.8557 14.4916 9.05741 14.6949Z" fill="#363538"/>
<path fill-rule="evenodd" clip-rule="evenodd" d="M20 10C20 15.5228 15.5228 20 10 20C4.47715 20 0 15.5228 0 10C0 4.47715 4.47715 0 10 0C15.5228 0 20 4.47715 20 10ZM18.5 10C18.5 14.6944 14.6944 18.5 10 18.5C5.30558 18.5 1.5 14.6944 1.5 10C1.5 5.30558 5.30558 1.5 10 1.5C14.6944 1.5 18.5 5.30558 18.5 10Z" fill="#363538"/>
</svg>
