<svg width="32" height="32" viewBox="0 0 32 32" fill="none" xmlns="http://www.w3.org/2000/svg">
<path fill-rule="evenodd" clip-rule="evenodd" d="M8 0C3.58172 0 0 3.58172 0 8V24C0 28.4183 3.58172 32 8 32H24C28.4183 32 32 28.4183 32 24V8C32 3.58172 28.4183 0 24 0H8ZM9.6 11.2C9.6 10.3163 10.3163 9.6 11.2 9.6C12.0837 9.6 12.8 10.3163 12.8 11.2C12.8 12.0837 12.0837 12.8 11.2 12.8C10.3163 12.8 9.6 12.0837 9.6 11.2ZM11.2 6.4C8.54903 6.4 6.4 8.54903 6.4 11.2C6.4 13.851 8.54903 16 11.2 16C13.851 16 16 13.851 16 11.2C16 8.54903 13.851 6.4 11.2 6.4ZM20.0101 19.5487C20.5665 18.8532 21.5827 18.7466 22.271 19.3085L25.3454 22.0031C26.01 22.5855 27.0208 22.519 27.6033 21.8545C28.1857 21.1899 28.1192 20.179 27.4546 19.5966L24.3477 16.8735L24.3324 16.8607C22.267 15.1396 19.1908 15.4503 17.5113 17.5497L14.9526 20.748C14.4516 21.3743 13.5549 21.5135 12.8876 21.0686C10.8483 19.7091 8.11115 20.1266 6.56937 22.0273L4.38865 24.5546C3.81137 25.2236 3.88574 26.234 4.55477 26.8112C5.2238 27.3885 6.23413 27.3141 6.81141 26.6451L9.02904 24.075L9.04762 24.0518C9.54862 23.4256 10.4453 23.2863 11.1126 23.7312C13.161 25.0968 15.9135 24.6695 17.4514 22.7471L20.0101 19.5487Z" fill="black"/>
</svg>
