<svg width="36" height="36" viewBox="0 0 36 36" fill="none" xmlns="http://www.w3.org/2000/svg">
<g filter="url(#filter0_d_156_15474)">
<circle cx="19.55" cy="16.55" r="11.55" fill="url(#paint0_linear_156_15474)"/>
<circle cx="19.5505" cy="16.5505" r="9.57" fill="url(#paint1_linear_156_15474)"/>
<circle cx="19.55" cy="16.55" r="11.55" fill="#FF9255"/>
<circle cx="19.5505" cy="16.5505" r="9.57" fill="url(#paint2_linear_156_15474)"/>
<mask id="mask0_156_15474" style="mask-type:alpha" maskUnits="userSpaceOnUse" x="8" y="5" width="24" height="24">
<circle cx="19.55" cy="16.55" r="11.55" fill="url(#paint3_linear_156_15474)"/>
</mask>
<g mask="url(#mask0_156_15474)">
<path d="M22.0247 17.5489C28.2287 10.2889 34.3997 10.1239 36.7097 10.9489L40.5047 14.5789L37.2047 30.2539L13.2797 37.6789L-0.0853125 31.5739L-1.57031 17.0539C3.70969 20.2439 15.8207 24.8089 22.0247 17.5489Z" fill="url(#paint4_linear_156_15474)"/>
<path d="M18.5598 16.5442C4.96486 8.29992 0.95993 10.8063 -1.0989 12.1397L-3.95891 16.5442L2.85239 31.0425L27.8431 32.7752L39.449 23.7643L37.5601 9.29127C33.1537 13.6085 27.2156 21.7933 18.5598 16.5442Z" fill="url(#paint5_linear_156_15474)"/>
</g>
</g>
<defs>
<filter id="filter0_d_156_15474" x="0" y="0" width="35.0996" height="35.0996" filterUnits="userSpaceOnUse" color-interpolation-filters="sRGB">
<feFlood flood-opacity="0" result="BackgroundImageFix"/>
<feColorMatrix in="SourceAlpha" type="matrix" values="0 0 0 0 0 0 0 0 0 0 0 0 0 0 0 0 0 0 127 0" result="hardAlpha"/>
<feOffset dx="-2" dy="1"/>
<feGaussianBlur stdDeviation="3"/>
<feColorMatrix type="matrix" values="0 0 0 0 0 0 0 0 0 0 0 0 0 0 0 0 0 0 0.25 0"/>
<feBlend mode="normal" in2="BackgroundImageFix" result="effect1_dropShadow_156_15474"/>
<feBlend mode="normal" in="SourceGraphic" in2="effect1_dropShadow_156_15474" result="shape"/>
</filter>
<linearGradient id="paint0_linear_156_15474" x1="19.55" y1="5" x2="19.55" y2="28.1" gradientUnits="userSpaceOnUse">
<stop stop-color="#FFC123"/>
<stop offset="1" stop-color="#F8832E"/>
</linearGradient>
<linearGradient id="paint1_linear_156_15474" x1="19.5505" y1="6.98047" x2="19.5505" y2="26.1205" gradientUnits="userSpaceOnUse">
<stop stop-color="#FFBF24"/>
<stop offset="1" stop-color="#F4924B"/>
</linearGradient>
<linearGradient id="paint2_linear_156_15474" x1="19.5505" y1="6.98047" x2="19.5505" y2="26.1205" gradientUnits="userSpaceOnUse">
<stop stop-color="#FFBF24"/>
<stop offset="1" stop-color="#F4924B"/>
</linearGradient>
<linearGradient id="paint3_linear_156_15474" x1="19.55" y1="5" x2="19.55" y2="28.1" gradientUnits="userSpaceOnUse">
<stop stop-color="#FFC123"/>
<stop offset="1" stop-color="#F8832E"/>
</linearGradient>
<linearGradient id="paint4_linear_156_15474" x1="19.4672" y1="10.6104" x2="19.4672" y2="37.6789" gradientUnits="userSpaceOnUse">
<stop stop-color="#FF9D55" stop-opacity="0.6"/>
<stop offset="1" stop-color="#FD8A37" stop-opacity="0"/>
</linearGradient>
<linearGradient id="paint5_linear_156_15474" x1="15.6051" y1="7.85082" x2="21.8209" y2="34.196" gradientUnits="userSpaceOnUse">
<stop stop-color="#FFBD3E" stop-opacity="0.49"/>
<stop offset="1" stop-color="white" stop-opacity="0"/>
</linearGradient>
</defs>
</svg>
