<svg width="38" height="39" viewBox="0 0 38 39" fill="none" xmlns="http://www.w3.org/2000/svg">
<path fill-rule="evenodd" clip-rule="evenodd" d="M35.6083 2.13373C33.4157 -0.0589001 29.8607 -0.0588998 27.6681 2.13373L17.2345 12.5673L16.3005 17.2373C15.8005 19.7373 18.0047 21.9415 20.5047 21.4415L25.1747 20.5075L35.6083 10.074C37.8009 7.88132 37.8009 4.32636 35.6083 2.13373ZM29.8336 4.29925C30.8302 3.3026 32.4461 3.3026 33.4428 4.29925C34.4394 5.2959 34.4394 6.91179 33.4428 7.90844L23.6649 17.6863L19.9041 18.4385C19.547 18.5099 19.2321 18.195 19.3035 17.8379L20.0557 14.0771L29.8336 4.29925Z" fill="#363538"/>
<path d="M13.5594 23.2746C14.3923 23.1276 14.9482 22.3334 14.8013 21.5006C14.6543 20.6677 13.86 20.1117 13.0272 20.2587C12.3489 20.3784 11.6387 20.4899 10.902 20.6055L10.812 20.6196C10.049 20.7394 9.26015 20.8638 8.48405 21.0027C6.94709 21.2777 5.37089 21.6241 4.02808 22.1545C2.71267 22.6741 1.38171 23.4619 0.639107 24.7732C-0.15376 26.1733 -0.0788339 27.7997 0.656611 29.5157C1.55189 31.6046 3.4866 32.5798 5.54236 32.9437C7.58523 33.3053 10.0109 33.1252 12.4396 32.6912C17.3201 31.8191 22.7034 29.8279 26.1715 28.2672C28.9155 27.0324 31.0951 27.3662 32.1673 28.1511C32.6821 28.528 32.9868 29.0258 33.0703 29.6288C33.1563 30.251 33.0231 31.1254 32.3845 32.2288C31.8716 33.1149 30.6561 33.8664 28.5463 34.4387C26.4943 34.9953 23.9704 35.2877 21.3066 35.5556C20.4651 35.6402 19.8516 36.3909 19.9362 37.2324C20.0208 38.0738 20.7716 38.6873 21.613 38.6027C24.2473 38.3378 27.0159 38.027 29.348 37.3944C31.6224 36.7775 33.8828 35.7537 35.0351 33.7629C35.9277 32.2206 36.3049 30.6621 36.1039 29.2091C35.9002 27.7369 35.1203 26.5174 33.9763 25.68C31.7307 24.0361 28.2958 23.953 24.9147 25.4744C21.5773 26.9763 16.4461 28.8642 11.9009 29.6765C9.61682 30.0846 7.6019 30.1981 6.07612 29.928C4.56323 29.6603 3.80122 29.0787 3.47148 28.3093C2.98191 27.167 3.12489 26.5986 3.30396 26.2824C3.53329 25.8774 4.07814 25.4275 5.15322 25.0028C6.20089 24.589 7.52985 24.2846 9.02351 24.0173C9.76273 23.885 10.5206 23.7653 11.2869 23.6451L11.3871 23.6293C12.1151 23.5151 12.8516 23.3995 13.5594 23.2746Z" fill="#363538"/>
</svg>
