<svg width="30" height="30" viewBox="0 0 30 30" fill="none" xmlns="http://www.w3.org/2000/svg">
<path d="M17.7165 3.36471L2.68537 18.1573C2.45676 18.3823 2.34245 18.4948 2.26955 18.6346C2.19664 18.7744 2.16986 18.9326 2.11631 19.2488L0.51142 28.7253C0.458135 29.04 0.431493 29.1973 0.522231 29.2885C0.612969 29.3797 0.770423 29.3539 1.08533 29.3022L10.7467 27.7176L10.7467 27.7176C11.0575 27.6666 11.2129 27.6411 11.351 27.5709C11.4891 27.5008 11.6013 27.3903 11.8258 27.1694L26.7742 12.4582C28.1379 11.1161 28.8198 10.4451 28.8198 9.60727C28.8198 8.76946 28.1379 8.09841 26.7742 6.75631L23.3279 3.36471C22.0035 2.0613 21.3413 1.40959 20.5222 1.40959C19.7031 1.40959 19.0409 2.0613 17.7165 3.36471Z" fill="white"/>
<path d="M14.3314 6.69616L2.68537 18.1574C2.45676 18.3824 2.34245 18.4949 2.26955 18.6347C2.19664 18.7745 2.16986 18.9327 2.11631 19.2489L0.51142 28.7254C0.458135 29.0401 0.431493 29.1974 0.522231 29.2886C0.612969 29.3798 0.770423 29.354 1.08533 29.3023L10.7467 27.7176C11.0575 27.6667 11.2129 27.6412 11.351 27.571C11.4891 27.5009 11.6013 27.3904 11.8258 27.1695L23.4575 15.7224C23.7985 15.3868 23.9689 15.2191 23.9689 15.0096C23.9689 14.8002 23.7985 14.6324 23.4575 14.2969L15.7343 6.69616C15.4032 6.3703 15.2376 6.20738 15.0328 6.20738C14.8281 6.20738 14.6625 6.3703 14.3314 6.69616Z" fill="#222222"/>
</svg>
