<svg width="30" height="30" viewBox="0 0 30 30" fill="none" xmlns="http://www.w3.org/2000/svg">
<path d="M17.7165 3.20651L2.68537 17.9991C2.45676 18.2241 2.34245 18.3366 2.26955 18.4764C2.19664 18.6162 2.16986 18.7744 2.11631 19.0906L0.51142 28.5671C0.458135 28.8818 0.431493 29.0391 0.522231 29.1303C0.612969 29.2215 0.770423 29.1957 1.08533 29.144L10.7467 27.5594C11.0575 27.5084 11.2128 27.4829 11.351 27.4127C11.4891 27.3426 11.6013 27.2321 11.8258 27.0112L26.7742 12.3C28.1379 10.9579 28.8198 10.2869 28.8198 9.44907C28.8198 8.61126 28.1379 7.94021 26.7742 6.59811L23.3279 3.20651C22.0035 1.90309 21.3413 1.25139 20.5222 1.25139C19.7031 1.25139 19.0409 1.90309 17.7165 3.20651Z" fill="black"/>
<path d="M14.3314 6.53795L2.68537 17.9992C2.45676 18.2242 2.34245 18.3367 2.26955 18.4765C2.19664 18.6163 2.16986 18.7745 2.11631 19.0907L0.51142 28.5672C0.458135 28.8819 0.431493 29.0392 0.522231 29.1304C0.612969 29.2216 0.770423 29.1958 1.08533 29.1441L10.7467 27.5594C11.0575 27.5085 11.2129 27.483 11.351 27.4128C11.4891 27.3427 11.6013 27.2322 11.8258 27.0113L23.4575 15.5642C23.7985 15.2286 23.9689 15.0609 23.9689 14.8514C23.9689 14.642 23.7985 14.4742 23.4575 14.1387L15.7343 6.53795C15.4032 6.2121 15.2376 6.04918 15.0328 6.04918C14.8281 6.04918 14.6625 6.2121 14.3314 6.53795Z" fill="white"/>
</svg>
