<svg width="31" height="31" viewBox="0 0 31 31" fill="none" xmlns="http://www.w3.org/2000/svg">
<path fill-rule="evenodd" clip-rule="evenodd" d="M9.04102 7.74967C9.04102 4.8962 11.3542 2.58301 14.2077 2.58301H16.791C19.6445 2.58301 21.9577 4.8962 21.9577 7.74967V15.4997C21.9577 18.3531 19.6445 20.6663 16.791 20.6663H14.2077C11.3542 20.6663 9.04102 18.3531 9.04102 15.4997V7.74967ZM6.45768 12.9163C7.17105 12.9163 7.74935 13.4946 7.74935 14.208V15.4997C7.74935 19.0665 10.6408 21.958 14.2077 21.958H15.4993H16.791C20.3579 21.958 23.2494 19.0665 23.2494 15.4997V14.208C23.2494 13.4946 23.8276 12.9163 24.541 12.9163C25.2544 12.9163 25.8327 13.4946 25.8327 14.208V15.4997C25.8327 20.4932 21.7846 24.5413 16.791 24.5413V27.1247C16.791 27.838 16.2127 28.4163 15.4993 28.4163C14.786 28.4163 14.2077 27.838 14.2077 27.1247L14.2077 24.5413C9.21411 24.5413 5.16602 20.4932 5.16602 15.4997V14.208C5.16602 13.4946 5.74431 12.9163 6.45768 12.9163Z" fill="black"/>
</svg>
