<svg width="31" height="31" viewBox="0 0 21 26" fill="none" xmlns="http://www.w3.org/2000/svg">
<path fill-rule="evenodd" clip-rule="evenodd" d="M4.04102 5.17057C4.04102 2.3171 6.35421 0.00390625 9.20768 0.00390625H11.791C14.6445 0.00390625 16.9577 2.3171 16.9577 5.17057V12.9206C16.9577 15.774 14.6445 18.0872 11.791 18.0872H9.20768C6.35421 18.0872 4.04102 15.774 4.04102 12.9206V5.17057ZM1.45768 10.3372C2.17105 10.3372 2.74935 10.9155 2.74935 11.6289V12.9206C2.74935 16.4874 5.64084 19.3789 9.20768 19.3789H10.4993H11.791C15.3579 19.3789 18.2493 16.4874 18.2493 12.9206V11.6289C18.2493 10.9155 18.8276 10.3372 19.541 10.3372C20.2544 10.3372 20.8327 10.9155 20.8327 11.6289V12.9206C20.8327 17.9141 16.7846 21.9622 11.791 21.9622V24.5456C11.791 25.2589 11.2127 25.8372 10.4993 25.8372C9.78598 25.8372 9.20768 25.2589 9.20768 24.5456V21.9622C4.21411 21.9622 0.166016 17.9141 0.166016 12.9206V11.6289C0.166016 10.9155 0.744314 10.3372 1.45768 10.3372Z" fill="white"/>
</svg>
