<svg width="34" height="30" viewBox="0 0 34 30" fill="none" xmlns="http://www.w3.org/2000/svg">
<path d="M11.3678 5.50684C7.81214 5.50684 4.92969 8.05988 4.92969 11.2092C4.92969 11.7065 5.38481 12.1096 5.94624 12.1096C6.50766 12.1096 6.96278 11.7065 6.96278 11.2092C6.96278 9.05441 8.93499 7.30759 11.3678 7.30759H15.7729V23.5144H12.7232C12.1618 23.5144 11.7067 23.9175 11.7067 24.4147C11.7067 24.912 12.1618 25.3151 12.7232 25.3151H20.8556C21.417 25.3151 21.8722 24.912 21.8722 24.4147C21.8722 23.9175 21.417 23.5144 20.8556 23.5144H17.806V7.30759H22.211C24.6439 7.30759 26.6161 9.05441 26.6161 11.2092C26.6161 11.7065 27.0712 12.1096 27.6326 12.1096C28.194 12.1096 28.6492 11.7065 28.6492 11.2092C28.6492 8.05988 25.7667 5.50684 22.211 5.50684H11.3678Z" fill="white"/>
</svg>
