<svg width="34" height="30" viewBox="0 0 34 30" fill="none" xmlns="http://www.w3.org/2000/svg">
<path d="M11.3678 5.92773C7.81214 5.92773 4.92969 8.48078 4.92969 11.6301C4.92969 12.1274 5.38481 12.5305 5.94624 12.5305C6.50766 12.5305 6.96278 12.1274 6.96278 11.6301C6.96278 9.4753 8.93499 7.72849 11.3678 7.72849H15.7729V23.9352H12.7232C12.1618 23.9352 11.7067 24.3384 11.7067 24.8356C11.7067 25.3329 12.1618 25.736 12.7232 25.736H20.8556C21.417 25.736 21.8722 25.3329 21.8722 24.8356C21.8722 24.3384 21.417 23.9352 20.8556 23.9352H17.806V7.72849H22.211C24.6439 7.72849 26.6161 9.4753 26.6161 11.6301C26.6161 12.1274 27.0712 12.5305 27.6326 12.5305C28.194 12.5305 28.6492 12.1274 28.6492 11.6301C28.6492 8.48078 25.7667 5.92773 22.211 5.92773H11.3678Z" fill="black"/>
</svg>
