<svg width="32" height="31" viewBox="0 0 32 31" fill="none" xmlns="http://www.w3.org/2000/svg">
<path d="M10.4738 6.49751C10.8607 6.11919 10.8607 5.50581 10.4738 5.12749C10.087 4.74917 9.45978 4.74917 9.07294 5.12749L5.11341 8.99982C4.93254 9.17533 4.82054 9.41863 4.82054 9.68751C4.82054 9.93697 4.91695 10.1644 5.07534 10.3361C5.08676 10.3485 5.09854 10.3607 5.11067 10.3725L9.07294 14.2475C9.45978 14.6258 10.087 14.6258 10.4738 14.2475C10.8607 13.8692 10.8607 13.2558 10.4738 12.8775L8.20254 10.6562H19.0187C22.8482 10.6562 25.9527 13.6923 25.9527 17.4375C25.9527 21.1827 22.8482 24.2187 19.0187 24.2187H5.15072C4.60365 24.2187 4.16016 24.6525 4.16016 25.1875C4.16016 25.7225 4.60365 26.1562 5.15072 26.1562H19.0187C23.9424 26.1562 27.9338 22.2527 27.9338 17.4375C27.9338 12.6223 23.9424 8.71875 19.0187 8.71875H8.20255L10.4738 6.49751Z" fill="black"/>
</svg>
