<svg width="41" height="33" viewBox="0 0 41 33" fill="none" xmlns="http://www.w3.org/2000/svg">
<path fill-rule="evenodd" clip-rule="evenodd" d="M13.5937 19.4924C13.5932 19.9742 13.5925 20.6086 13.6718 21.143C13.7602 21.7394 14.0617 23.0484 15.401 23.8067C16.7403 24.565 18.0179 24.15 18.5748 23.9191C19.0739 23.7121 19.6175 23.3851 20.0303 23.1368L25.1755 20.0497C25.5669 19.8154 26.0934 19.5004 26.5002 19.1661C26.9664 18.783 27.886 17.8863 27.886 16.4062C27.886 14.9262 26.9664 14.0295 26.5002 13.6464C26.0934 13.3121 25.5669 12.997 25.1755 12.7628L20.0304 9.6757C19.6175 9.42737 19.0739 9.10039 18.5748 8.89341C18.0179 8.66244 16.7403 8.24747 15.401 9.00579C14.0617 9.7641 13.7602 11.0731 13.6718 11.6694C13.5925 12.2039 13.5932 12.8383 13.5937 13.3201V19.4924ZM18.678 12.1443L23.6375 15.12C24.5948 15.6944 25.0735 15.9816 25.0735 16.4062C25.0735 16.8309 24.5948 17.1181 23.6375 17.6925L18.678 20.6682C17.6708 21.2725 17.1672 21.5747 16.7867 21.3592C16.4063 21.1438 16.4063 20.5565 16.4063 19.3819V13.4305C16.4063 12.2559 16.4063 11.6686 16.7867 11.4532C17.1672 11.2378 17.6708 11.54 18.678 12.1443Z" fill="#363538"/>
<path fill-rule="evenodd" clip-rule="evenodd" d="M16.3005 5.79369e-07C12.8547 -2.83663e-05 10.1254 -5.12693e-05 7.98933 0.287129C5.79104 0.582682 4.01176 1.2054 2.60858 2.60858C1.2054 4.01176 0.582682 5.79104 0.287129 7.98933C-5.16884e-05 10.1254 -2.8583e-05 12.8547 5.86085e-07 16.3004V16.512C-2.8583e-05 19.9578 -5.16884e-05 22.6871 0.287129 24.8232C0.582682 27.0215 1.2054 28.8007 2.60858 30.2039C4.01176 31.6071 5.79104 32.2298 7.98933 32.5254C10.1253 32.8126 12.8546 32.8125 16.3004 32.8125H24.012C27.4578 32.8125 30.1872 32.8126 32.3232 32.5254C34.5215 32.2298 36.3007 31.6071 37.7039 30.2039C39.1071 28.8007 39.7298 27.0215 40.0254 24.8232C40.3126 22.6872 40.3125 19.9579 40.3125 16.5121V16.3005C40.3125 12.8547 40.3126 10.1253 40.0254 7.98933C39.7298 5.79104 39.1071 4.01176 37.7039 2.60858C36.3007 1.2054 34.5215 0.582682 32.3232 0.287129C30.1872 -5.12972e-05 27.4578 -2.83663e-05 24.0121 5.79369e-07H16.3005ZM4.59732 4.59732C5.39084 3.8038 6.47768 3.32817 8.36409 3.07455C10.291 2.81549 12.831 2.8125 16.4062 2.8125H23.9063C27.4815 2.8125 30.0215 2.81549 31.9484 3.07455C33.8348 3.32817 34.9217 3.8038 35.7152 4.59732C36.5087 5.39084 36.9843 6.47768 37.238 8.36409C37.497 10.291 37.5 12.831 37.5 16.4063C37.5 19.9815 37.497 22.5215 37.238 24.4484C36.9843 26.3348 36.5087 27.4217 35.7152 28.2152C34.9217 29.0087 33.8348 29.4843 31.9484 29.738C30.0215 29.997 27.4815 30 23.9063 30H16.4063C12.831 30 10.291 29.997 8.36409 29.738C6.47768 29.4843 5.39084 29.0087 4.59732 28.2152C3.8038 27.4217 3.32817 26.3348 3.07455 24.4484C2.81549 22.5215 2.8125 19.9815 2.8125 16.4063C2.8125 12.831 2.81549 10.291 3.07455 8.36409C3.32817 6.47768 3.8038 5.39084 4.59732 4.59732Z" fill="#363538"/>
</svg>
